PathFileType	4	(X/Y/Z)	D:\Share\Shared_Data\Ergonomics\Sit To Stand Pertubation\S3\Unperturbed.trc
DataRate	CameraRate	NumFrames	NumMarkers	Units	OrigDataRate	OrigDataStartFrame	OrigNumFrames	
100	100	9	18	m	100	5713	251
Frame#	Time	R_Thigh			R_ASIS			R_Pelvis			V_Sacral			L_Pelvis			L_ASIS			Clavical			R_Acromium			L_Acromium			Sternum			Torso			R_Thigh_Med			R_Thigh_Lat			R_Shank_Med			R_Shank_Lat			R_Shank			R_Heel			R_Toe			
		X1	Y1	Z1	X2	Y2	Z2	X3	Y3	Z3	X4	Y4	Z4	X5	Y5	Z5	X6	Y6	Z6	X7	Y7	Z7	X8	Y8	Z8	X9	Y9	Z9	X10	Y10	Z10	X11	Y11	Z11	X12	Y12	Z12	X13	Y13	Z13	X14	Y14	Z14	X15	Y15	Z15	X16	Y16	Z16	X17	Y17	Z17	X18	Y18	Z18	

5713	57.12	0.13955437	0.58414508	0.11864868	-0.040381783	0.65434802	0.14994653	-0.14587813	0.62534552	0.20460773	-0.25423869	0.61091833	0.019897873	-0.14893175	0.64387262	-0.18874028	-0.042921185	0.65055438	-0.12715471	-0.1102243	1.0335492	0.0025182526	-0.16344925	1.0887029	0.17773956	-0.15643706	1.0876235	-0.15096841	-0.079203598	0.96330676	0.009649374	-0.10423825	1.0216193	-0.059034878	0.3251969	0.47130411	0.08097303	0.30854193	0.44984113	0.19790608	0.2588374	0.10819444	0.094492523	0.23491646	0.099427513	0.17361568	0.25327658	0.27277655	0.19944824	0.18076164	0.050732655	0.11873478	0.39764542	0.056704773	0.13953938
5714	57.13	0.13946449	0.58416284	0.11882051	-0.040234108	0.65426001	0.15004727	-0.14588647	0.62547485	0.20462381	-0.25400575	0.61130988	0.019712002	-0.14842238	0.64406848	-0.18877242	-0.042388088	0.65051904	-0.12711761	-0.10867568	1.0335768	0.002659359	-0.16200427	1.0888553	0.17779266	-0.15437373	1.0878231	-0.15091257	-0.077918541	0.96322595	0.0097920704	-0.10262316	1.0216448	-0.058883583	0.32512463	0.47136127	0.081230843	0.30839349	0.44982953	0.19810405	0.25884586	0.10821967	0.094529625	0.23489001	0.09942672	0.17364977	0.2531895	0.27276221	0.19957101	0.18076077	0.050738049	0.11873805	0.39763171	0.056722958	0.13955681
5715	57.14	0.13937216	0.58417499	0.11900838	-0.040070324	0.65416486	0.15016405	-0.14589105	0.62561407	0.20463774	-0.2537485	0.6117204	0.019514313	-0.14786902	0.64426489	-0.18881268	-0.041812984	0.65045972	-0.12706928	-0.10703621	1.033604	0.0028083546	-0.1604816	1.0890093	0.17784518	-0.15219899	1.0880221	-0.15085823	-0.076554214	0.96313977	0.0099505072	-0.10091439	1.0216669	-0.058724861	0.3250542	0.47141769	0.0815056	0.3082424	0.44980746	0.1983105	0.25885281	0.10824402	0.094567162	0.23487375	0.099416946	0.17369104	0.25310156	0.27274118	0.1997016	0.18075772	0.05073938	0.11874172	0.39761511	0.05674115	0.13957408
5716	57.15	0.13928156	0.58417993	0.11920991	-0.039883667	0.65406213	0.15029036	-0.14588208	0.62576746	0.20464865	-0.25346465	0.6121524	0.019308592	-0.14727783	0.64446167	-0.18885962	-0.041200932	0.65037982	-0.12701421	-0.10530124	1.0336311	0.0029606726	-0.15887738	1.0891659	0.17789531	-0.14991934	1.088222	-0.15080597	-0.075107735	0.96304559	0.010120628	-0.099108894	1.0216861	-0.05856382	0.32498602	0.47147195	0.081796356	0.30809061	0.44977493	0.19852431	0.25885864	0.10826765	0.094604843	0.23486378	0.099400398	0.17373688	0.25301224	0.27271191	0.19983977	0.18075296	0.050736259	0.1187453	0.39759564	0.056759365	0.1395909
5717	57.16	0.13919786	0.58417737	0.11942159	-0.039667309	0.65395172	0.15041788	-0.14584871	0.62593811	0.20465642	-0.25315407	0.61260815	0.019098825	-0.1466559	0.64465961	-0.18891093	-0.040558578	0.65028613	-0.12695946	-0.10346542	1.0336562	0.0031122937	-0.1571844	1.089326	0.177942	-0.14753999	1.0884242	-0.1507554	-0.073575203	0.9629397	0.010297047	-0.097203682	1.0217028	-0.058405468	0.32492245	0.47152203	0.0821026	0.30794049	0.4497337	0.19874632	0.25886401	0.10829108	0.094642677	0.23485864	0.099379005	0.17378587	0.25292188	0.27267484	0.19998491	0.18074713	0.050729805	0.11874906	0.39757407	0.056777653	0.13960696
5718	57.17	0.13912645	0.58416809	0.11963942	-0.039415024	0.65383276	0.15053836	-0.14578035	0.62612762	0.20466003	-0.25281799	0.6130899	0.018889309	-0.14601036	0.6448606	-0.18896432	-0.039893261	0.65018591	-0.12691262	-0.10152316	1.0336782	0.0032596147	-0.15539227	1.0894893	0.17798457	-0.14506404	1.0886305	-0.15070747	-0.071951805	0.96281958	0.010474342	-0.095195572	1.0217188	-0.058254131	0.32486771	0.47156506	0.082423912	0.30779465	0.44968649	0.19897939	0.25886966	0.10831496	0.094681015	0.23485887	0.099354378	0.17383752	0.2528316	0.27263202	0.20013612	0.18074092	0.050722015	0.11875357	0.39755157	0.056795994	0.13962225
5719	57.18	0.13907204	0.58415326	0.11985935	-0.039121552	0.6537049	0.15064516	-0.14566835	0.62633557	0.20465598	-0.25245694	0.6136004	0.018684502	-0.14534772	0.64506781	-0.18901823	-0.039210461	0.65008484	-0.12688033	-0.099468887	1.0336954	0.0033994009	-0.15348917	1.0896554	0.17802232	-0.14249213	1.0888402	-0.15066579	-0.070232201	0.96268506	0.010648201	-0.093081039	1.0217363	-0.058112648	0.32482693	0.47159882	0.082759743	0.3076553	0.44963589	0.19922723	0.25887595	0.10833984	0.094720306	0.23486383	0.099328728	0.17389075	0.25274384	0.27258643	0.20029259	0.18073514	0.050714996	0.11875921	0.39752939	0.056814178	0.13963718
5720	57.19	0.13903752	0.58413416	0.12007736	-0.038782875	0.65356708	0.15073405	-0.14550664	0.62656012	0.20463835	-0.25207054	0.61414215	0.018488535	-0.14467355	0.64528522	-0.18907236	-0.038513229	0.64998547	-0.12686778	-0.097296967	1.0337079	0.0035291471	-0.15146379	1.0898254	0.17805466	-0.13982091	1.0890529	-0.15063431	-0.068411308	0.96253821	0.010815987	-0.090856232	1.0217576	-0.057981564	0.32480417	0.47162262	0.083109177	0.30752371	0.44958377	0.19949246	0.25888318	0.10836614	0.09476078	0.23487233	0.099303627	0.17394487	0.25266135	0.27254077	0.2004536	0.1807305	0.050711197	0.11876682	0.39750861	0.056831848	0.1396524
5721	57.2	0.13902423	0.58411206	0.12028984	-0.038396378	0.65341888	0.15080313	-0.14529161	0.62679932	0.2046026	-0.25165845	0.61471674	0.018304483	-0.14399242	0.64551575	-0.1891272	-0.037803738	0.64988562	-0.12687813	-0.095001678	1.0337148	0.0036477005	-0.14930609	1.0899999	0.17808069	-0.13704216	1.0892672	-0.15061356	-0.066485146	0.96238245	0.010976782	-0.088516708	1.0217854	-0.057859283	0.32480045	0.47163788	0.083470116	0.30740082	0.44953122	0.19977551	0.25889148	0.10839397	0.09480249	0.23488449	0.099278687	0.17400063	0.25258675	0.27249719	0.20061847	0.18072743	0.050713196	0.11877779	0.39748978	0.056848614	0.13966872
